<?xml version="1.0" encoding="UTF-8" standalone="no"?>
<!-- Created with Inkscape (http://www.inkscape.org/) -->

<svg
   xmlns:dc="http://purl.org/dc/elements/1.1/"
   xmlns:cc="http://creativecommons.org/ns#"
   xmlns:rdf="http://www.w3.org/1999/02/22-rdf-syntax-ns#"
   xmlns:svg="http://www.w3.org/2000/svg"
   xmlns="http://www.w3.org/2000/svg"
   xmlns:sodipodi="http://sodipodi.sourceforge.net/DTD/sodipodi-0.dtd"
   xmlns:inkscape="http://www.inkscape.org/namespaces/inkscape"
   width="128mm"
   height="128mm"
   viewBox="0 0 128 128"
   version="1.1"
   id="svg8"
   inkscape:version="0.92.3 (2405546, 2018-03-11)"
   sodipodi:docname="icon.svg">
  <defs
     id="defs2" />
  <sodipodi:namedview
     id="base"
     pagecolor="#ffffff"
     bordercolor="#666666"
     borderopacity="1.0"
     inkscape:pageopacity="0.0"
     inkscape:pageshadow="2"
     inkscape:zoom="0.66691529"
     inkscape:cx="186.11161"
     inkscape:cy="322.10181"
     inkscape:document-units="mm"
     inkscape:current-layer="layer1"
     showgrid="false"
     inkscape:window-width="1920"
     inkscape:window-height="1001"
     inkscape:window-x="-9"
     inkscape:window-y="-9"
     inkscape:window-maximized="1" />
  <metadata
     id="metadata5">
    <rdf:RDF>
      <cc:Work
         rdf:about="">
        <dc:format>image/svg+xml</dc:format>
        <dc:type
           rdf:resource="http://purl.org/dc/dcmitype/StillImage" />
        <dc:title></dc:title>
        <dc:creator>
          <cc:Agent>
            <dc:title>MM Informatique - Mathilde MAROCCO SARL</dc:title>
          </cc:Agent>
        </dc:creator>
      </cc:Work>
    </rdf:RDF>
  </metadata>
  <g
     inkscape:label="Calque 1"
     inkscape:groupmode="layer"
     id="layer1"
     transform="translate(0,-169)">
    <rect
       style="opacity:1;fill:#fece00;fill-opacity:0.94117647;fill-rule:nonzero;stroke:#6e7e9f;stroke-width:0.25979778;stroke-linecap:butt;stroke-linejoin:bevel;stroke-miterlimit:4;stroke-dasharray:none;stroke-opacity:1;paint-order:normal"
       id="rect817"
       width="127.91669"
       height="128.16016"
       x="0.24163951"
       y="168.99463" />
    <flowRoot
       xml:space="preserve"
       id="flowRoot819"
       style="font-style:normal;font-variant:normal;font-weight:normal;font-stretch:normal;font-size:40px;line-height:1.25;font-family:'Font Awesome 5 Free';-inkscape-font-specification:'Font Awesome 5 Free';letter-spacing:0px;word-spacing:0px;fill:#000000;fill-opacity:1;stroke:none"
       transform="matrix(0.26458333,0,0,0.26458333,0,169)"><flowRegion
         id="flowRegion821"><rect
           id="rect823"
           width="325.71429"
           height="222.85715"
           x="71.428574"
           y="143.77954" /></flowRegion><flowPara
         id="flowPara831" /></flowRoot>    <path
       style="fill:#595959;fill-opacity:1;stroke-width:0.37376601"
       d="m 50.46568,196.72775 c -4.235484,0 -4.557464,0.34489 -4.557464,4.88451 v 3.46098 l -4.235528,0.12559 c -3.968775,0.11767 -4.32134,0.19115 -5.60649,1.17241 -2.05375,1.5681 -2.586711,2.91701 -2.787916,7.05921 -0.09674,1.99161 -0.07477,3.88474 0.04891,4.20705 0.202024,0.52649 3.217949,0.57659 29.669867,0.49058 l 29.445022,-0.0956 -0.0212,-4.11143 c -0.0246,-4.69045 -0.43383,-5.85157 -2.657966,-7.54977 -1.28515,-0.98126 -1.637716,-1.05474 -5.60649,-1.17241 l -4.235528,-0.12559 v -3.46098 c 0,-4.53962 -0.321984,-4.88451 -4.557464,-4.88451 -4.027346,0 -4.41292,0.4447 -4.41292,5.08745 v 3.32228 h -8.035969 -8.03597 v -3.32228 c 0,-4.64275 -0.385572,-5.08745 -4.41292,-5.08745 z m -17.078625,25.41609 v 18.87517 c 0,18.00468 0.03338,18.93037 0.723438,20.07095 0.887684,1.46717 2.580448,2.75733 4.10924,3.13175 0.631066,0.15451 12.094594,0.25291 25.474491,0.21901 l 24.32764,-0.0613 1.470243,-1.01983 c 0.808844,-0.56064 1.803644,-1.56982 2.210474,-2.2426 0.71117,-1.17603 0.7395,-1.95069 0.7395,-20.09795 v -18.8752 H 62.91457 Z m 23.72319,7.99071 0.939525,0.94025 c 0.938127,0.93812 0.940257,0.95376 0.940257,8.03085 v 7.09207 l -0.984789,0.77455 c -0.915345,0.71999 -1.449276,0.77203 -7.568761,0.74461 -3.621169,-0.0162 -6.836266,-0.11894 -7.144623,-0.22923 v -7.2e-4 c -1.366934,-0.48853 -1.495065,-1.23667 -1.495065,-8.73605 0,-6.38279 0.08165,-7.42603 0.61686,-7.871 0.462763,-0.38474 2.377093,-0.54223 7.657095,-0.62927 z"
       id="path869"
       inkscape:connector-curvature="0" />
    <flowRoot
       xml:space="preserve"
       id="flowRoot880"
       style="font-style:normal;font-variant:normal;font-weight:normal;font-stretch:normal;font-size:40px;line-height:1.25;font-family:'Font Awesome 5 Free';-inkscape-font-specification:'Font Awesome 5 Free';text-align:center;letter-spacing:0px;word-spacing:0px;text-anchor:middle;fill:#000000;fill-opacity:1;stroke:none"
       transform="matrix(0.26458333,0,0,0.26458333,167.57562,-73.04606)"><flowRegion
         id="flowRegion882"
         style="text-align:center;text-anchor:middle"><rect
           id="rect884"
           width="420.56076"
           height="69.158882"
           x="37.383179"
           y="345.46179"
           style="text-align:center;text-anchor:middle" /></flowRegion><flowPara
         id="flowPara886"
         style="font-style:normal;font-variant:normal;font-weight:normal;font-stretch:normal;font-size:53.33333588px;font-family:Play;-inkscape-font-specification:Play;text-align:center;text-anchor:middle;fill:#595959;fill-opacity:1">MM Ephemeride</flowPara></flowRoot>  </g>
</svg>
